<?xml version="1.0" standalone="no"?>
<!DOCTYPE svg PUBLIC "-//W3C//DTD SVG 20010904//EN"
 "http://www.w3.org/TR/2001/REC-SVG-20010904/DTD/svg10.dtd">
<svg version="1.0" xmlns="http://www.w3.org/2000/svg"
 width="512.000000pt" height="512.000000pt" viewBox="0 0 512.000000 512.000000"
 preserveAspectRatio="xMidYMid meet">
<metadata>
Created by potrace 1.11, written by Peter Selinger 2001-2013
</metadata>
<g transform="translate(0.000000,512.000000) scale(0.100000,-0.100000)"
fill="#000000" stroke="none">
<path d="M4448 3546 c-71 -13 -131 -26 -135 -29 -10 -10 11 -162 22 -160 6 0
31 4 58 8 l47 7 0 -308 c0 -170 4 -315 9 -322 5 -9 30 -12 87 -10 l79 3 0 415
c0 408 0 415 -20 417 -11 0 -77 -9 -147 -21z"/>
<path d="M4022 3328 c-7 -7 -12 -42 -12 -95 l0 -82 -92 -3 -93 -3 0 -70 0 -70
93 -3 92 -3 0 -82 c0 -45 4 -88 9 -95 5 -9 27 -12 72 -10 l64 3 3 92 3 92 92
3 92 3 0 70 0 70 -92 3 -92 3 -3 92 -3 92 -60 3 c-38 2 -65 -2 -73 -10z"/>
<path d="M3471 3051 c-13 -24 -15 -1149 -3 -1169 6 -9 37 -12 118 -10 l109 3
0 595 0 595 -107 3 c-98 2 -108 1 -117 -17z"/>
<path d="M515 2978 c-3 -7 -4 -258 -3 -558 l3 -545 315 0 315 0 0 110 0 110
-197 3 -198 2 -2 443 -3 442 -113 3 c-84 2 -114 -1 -117 -10z"/>
<path d="M1401 2664 c-182 -66 -295 -266 -262 -460 36 -206 210 -355 416 -354
112 1 300 65 300 103 0 8 -22 45 -48 82 -37 52 -52 65 -65 59 -9 -4 -42 -16
-72 -27 -67 -23 -166 -20 -223 7 -37 18 -87 77 -87 103 0 10 63 13 278 15
l277 3 3 48 c10 160 -93 339 -235 408 -63 30 -216 37 -282 13z m210 -187 c35
-24 79 -81 79 -103 0 -11 -33 -14 -166 -14 l-165 0 6 23 c29 101 161 151 246
94z"/>
<path d="M2869 2657 c-113 -47 -194 -138 -231 -260 -61 -202 30 -411 221 -505
72 -36 79 -37 180 -37 109 0 140 7 244 52 39 18 57 31 57 44 0 15 -85 149 -95
149 -1 0 -24 -9 -50 -21 -58 -26 -178 -36 -229 -19 -45 14 -92 53 -111 91 -8
15 -15 30 -15 34 0 3 123 5 274 5 234 0 275 2 286 15 10 13 11 32 1 98 -22
157 -111 290 -231 346 -80 38 -221 41 -301 8z m219 -171 c36 -19 58 -44 77
-89 l15 -37 -166 0 -166 0 7 27 c10 40 40 78 77 96 41 20 120 22 156 3z"/>
<path d="M1870 2655 c0 -14 233 -673 266 -752 l13 -33 120 0 120 0 21 58 c101
268 260 725 255 732 -9 15 -211 13 -222 -2 -6 -7 -43 -105 -83 -218 -40 -113
-77 -216 -82 -230 -8 -22 -21 6 -93 208 -46 128 -87 237 -90 242 -3 6 -55 10
-116 10 -91 0 -109 -3 -109 -15z"/>
</g>
</svg>
